<svg width="88" height="88" viewBox="0 0 88 88" fill="none" xmlns="http://www.w3.org/2000/svg">
<path d="M55 27.5L66 0H44L33 27.5H55Z" fill="#5C00DE"/>
<path d="M55 27.5H33L22 0H44L55 27.5Z" fill="#9B54FF"/>
<path d="M55 27.5H44V0L55 27.5Z" fill="#7641BF"/>
<path d="M75.5391 54.572C75.5391 57.5266 78.0227 60.7681 77.294 63.4923C76.5412 66.3111 72.7479 67.8734 71.3196 70.3433C69.8707 72.8458 70.4001 76.9072 68.3668 78.9388C66.3352 80.972 62.2755 80.4427 59.7713 81.8916C57.3015 83.3198 55.7408 87.1131 52.9204 87.8659C50.1962 88.5947 46.9546 86.1111 44.0001 86.1111C41.0455 86.1111 37.804 88.5947 35.0798 87.8659C32.2593 87.1131 30.6987 83.3198 28.2288 81.8916C25.7246 80.4427 21.6649 80.972 19.6333 78.9388C17.6001 76.9072 18.1294 72.8475 16.6805 70.3433C15.2523 67.8734 11.459 66.3111 10.7062 63.4923C9.97741 60.7681 12.461 57.5266 12.461 54.572C12.461 51.6175 9.97741 48.3759 10.7062 45.6517C11.459 42.8312 15.2523 41.2689 16.6805 38.8008C18.1294 36.2966 17.6001 32.2369 19.6333 30.2053C21.6649 28.172 25.7246 28.7014 28.2288 27.2525C30.6987 25.8242 32.2593 22.0309 35.0798 21.2781C37.804 20.5494 41.0455 23.033 44.0001 23.033C46.9546 23.033 50.1962 20.5494 52.9204 21.2781C55.7408 22.0309 57.3015 25.8242 59.7713 27.2525C62.2755 28.7014 66.3352 28.172 68.3668 30.2053C70.4001 32.2369 69.8707 36.2966 71.3196 38.8008C72.7479 41.2689 76.5412 42.8312 77.294 45.6517C78.0227 48.3759 75.5391 51.6175 75.5391 54.572Z" fill="#F0F2FF"/>
<path d="M75.5391 54.572C75.5391 57.5266 78.0227 60.7681 77.2939 63.4923C76.5411 66.3111 72.7478 67.8734 71.3196 70.3433C69.8707 72.8458 70.4 76.9072 68.3667 78.9388C66.3352 80.972 62.2755 80.4427 59.7713 81.8916C57.3014 83.3198 55.7408 87.1131 52.9203 87.8659C50.1961 88.5947 46.9545 86.1111 44 86.1111V23.033C46.9545 23.033 50.1961 20.5494 52.9203 21.2781C55.7408 22.0309 57.3014 25.8242 59.7713 27.2525C62.2755 28.7014 66.3352 28.172 68.3667 30.2053C70.4 32.2369 69.8707 36.2966 71.3196 38.8008C72.7478 41.2689 76.5411 42.8312 77.2939 45.6517C78.0227 48.3759 75.5391 51.6175 75.5391 54.572Z" fill="#D7DCF5"/>
<path d="M44 76.572C56.1503 76.572 66 66.7223 66 54.572C66 42.4217 56.1503 32.572 44 32.572C31.8497 32.572 22 42.4217 22 54.572C22 66.7223 31.8497 76.572 44 76.572Z" fill="#D7DCF5"/>
<path d="M66 54.572C66 66.7218 56.1498 76.572 44 76.572V32.572C56.1498 32.572 66 42.4222 66 54.572Z" fill="#BBC1DE"/>
<path d="M52.797 50.128C52.797 51.36 52.5 52.515 51.906 53.593C51.334 54.671 50.421 55.54 49.167 56.2C47.935 56.86 46.373 57.19 44.481 57.19H40.62V66.034H36V43H44.481C46.263 43 47.781 43.308 49.035 43.924C50.289 44.54 51.224 45.387 51.84 46.465C52.478 47.543 52.797 48.764 52.797 50.128ZM44.283 53.461C45.559 53.461 46.505 53.175 47.121 52.603C47.737 52.009 48.045 51.184 48.045 50.128C48.045 47.884 46.791 46.762 44.283 46.762H40.62V53.461H44.283Z" fill="#D7DCF5"/>
<mask id="mask0_1777_2559" style="mask-type:alpha" maskUnits="userSpaceOnUse" x="30" y="41" width="14" height="28">
<rect x="30" y="41" width="14" height="28" fill="#C4C4C4"/>
</mask>
<g mask="url(#mask0_1777_2559)">
<path d="M52.797 50.128C52.797 51.36 52.5 52.515 51.906 53.593C51.334 54.671 50.421 55.54 49.167 56.2C47.935 56.86 46.373 57.19 44.481 57.19H40.62V66.034H36V43H44.481C46.263 43 47.781 43.308 49.035 43.924C50.289 44.54 51.224 45.387 51.84 46.465C52.478 47.543 52.797 48.764 52.797 50.128ZM44.283 53.461C45.559 53.461 46.505 53.175 47.121 52.603C47.737 52.009 48.045 51.184 48.045 50.128C48.045 47.884 46.791 46.762 44.283 46.762H40.62V53.461H44.283Z" fill="#F0F2FF"/>
</g>
</svg>
