<svg width="88" height="88" viewBox="0 0 88 88" fill="none" xmlns="http://www.w3.org/2000/svg">
<path d="M55 27.5L66 0H44L33 27.5H55Z" fill="#086ACD"/>
<path d="M55 27.5H33L22 0H44L55 27.5Z" fill="#0ADCF0"/>
<path d="M55 27.5H44V0L55 27.5Z" fill="#16A4D4"/>
<path d="M75.5391 54.572C75.5391 57.5266 78.0227 60.7681 77.294 63.4923C76.5412 66.3111 72.7479 67.8734 71.3196 70.3433C69.8707 72.8458 70.4001 76.9072 68.3668 78.9388C66.3352 80.972 62.2755 80.4427 59.7713 81.8916C57.3015 83.3198 55.7408 87.1131 52.9204 87.8659C50.1962 88.5947 46.9546 86.1111 44.0001 86.1111C41.0455 86.1111 37.804 88.5947 35.0798 87.8659C32.2593 87.1131 30.6987 83.3198 28.2288 81.8916C25.7246 80.4427 21.6649 80.972 19.6333 78.9388C17.6001 76.9072 18.1294 72.8475 16.6805 70.3433C15.2523 67.8734 11.459 66.3111 10.7062 63.4923C9.97741 60.7681 12.461 57.5266 12.461 54.572C12.461 51.6175 9.97741 48.3759 10.7062 45.6517C11.459 42.8312 15.2523 41.2689 16.6805 38.8008C18.1294 36.2966 17.6001 32.2369 19.6333 30.2053C21.6649 28.172 25.7246 28.7014 28.2288 27.2525C30.6987 25.8242 32.2593 22.0309 35.0798 21.2781C37.804 20.5494 41.0455 23.033 44.0001 23.033C46.9546 23.033 50.1962 20.5494 52.9204 21.2781C55.7408 22.0309 57.3015 25.8242 59.7713 27.2525C62.2755 28.7014 66.3352 28.172 68.3668 30.2053C70.4001 32.2369 69.8707 36.2966 71.3196 38.8008C72.7479 41.2689 76.5412 42.8312 77.294 45.6517C78.0227 48.3759 75.5391 51.6175 75.5391 54.572Z" fill="#FFDF46"/>
<path d="M75.5391 54.572C75.5391 57.5266 78.0227 60.7681 77.2939 63.4923C76.5411 66.3111 72.7478 67.8734 71.3196 70.3433C69.8707 72.8458 70.4 76.9072 68.3667 78.9388C66.3352 80.972 62.2755 80.4427 59.7713 81.8916C57.3014 83.3198 55.7408 87.1131 52.9203 87.8659C50.1961 88.5947 46.9545 86.1111 44 86.1111V23.033C46.9545 23.033 50.1961 20.5494 52.9203 21.2781C55.7408 22.0309 57.3014 25.8242 59.7713 27.2525C62.2755 28.7014 66.3352 28.172 68.3667 30.2053C70.4 32.2369 69.8707 36.2966 71.3196 38.8008C72.7478 41.2689 76.5411 42.8312 77.2939 45.6517C78.0227 48.3759 75.5391 51.6175 75.5391 54.572Z" fill="#FFA000"/>
<path d="M44 76.572C56.1503 76.572 66 66.7223 66 54.572C66 42.4217 56.1503 32.572 44 32.572C31.8497 32.572 22 42.4217 22 54.572C22 66.7223 31.8497 76.572 44 76.572Z" fill="#FFA000"/>
<path d="M66 54.572C66 66.7218 56.1498 76.572 44 76.572V32.572C56.1498 32.572 66 42.4222 66 54.572Z" fill="#DF7D00"/>
<path d="M49.8797 50.3717C49.3295 49.3843 48.5731 48.6325 47.6103 48.1164C46.6476 47.6003 45.5244 47.3422 44.2407 47.3422C42.8195 47.3422 41.5587 47.6564 40.4585 48.2847C39.3582 48.913 38.4986 49.8107 37.8797 50.9776C37.2607 52.1445 36.9513 53.4909 36.9513 55.0168C36.9513 56.5877 37.2607 57.9565 37.8797 59.1234C38.5215 60.2903 39.404 61.1879 40.5272 61.8163C41.6504 62.4446 42.957 62.7588 44.447 62.7588C46.2808 62.7588 47.7822 62.2875 48.9513 61.345C50.1203 60.3801 50.8883 59.0449 51.255 57.3394H43.0029V53.7377H56V57.8443C55.6791 59.4825 54.9914 60.9972 53.937 62.3885C52.8825 63.7798 51.5186 64.9018 49.8453 65.7546C48.1948 66.5849 46.3381 67 44.2751 67C41.9599 67 39.8625 66.4951 37.9828 65.4853C36.1261 64.453 34.659 63.028 33.5817 61.2104C32.5272 59.3927 32 57.3282 32 55.0168C32 52.7055 32.5272 50.641 33.5817 48.8233C34.659 46.9832 36.1261 45.5582 37.9828 44.5484C39.8625 43.5161 41.9484 43 44.2407 43C46.9456 43 49.2951 43.6508 51.2894 44.9523C53.2837 46.2314 54.659 48.0379 55.4155 50.3717H49.8797Z" fill="#FFA000"/>
<mask id="mask0_1778_2585" style="mask-type:alpha" maskUnits="userSpaceOnUse" x="30" y="41" width="14" height="28">
<rect x="30" y="41" width="14" height="28" fill="#C4C4C4"/>
</mask>
<g mask="url(#mask0_1778_2585)">
<path d="M49.8797 50.3717C49.3295 49.3843 48.5731 48.6325 47.6103 48.1164C46.6476 47.6003 45.5244 47.3422 44.2407 47.3422C42.8195 47.3422 41.5587 47.6564 40.4585 48.2847C39.3582 48.913 38.4986 49.8107 37.8797 50.9776C37.2607 52.1445 36.9513 53.4909 36.9513 55.0168C36.9513 56.5877 37.2607 57.9565 37.8797 59.1234C38.5215 60.2903 39.404 61.1879 40.5272 61.8163C41.6504 62.4446 42.957 62.7588 44.447 62.7588C46.2808 62.7588 47.7822 62.2875 48.9513 61.345C50.1203 60.3801 50.8883 59.0449 51.255 57.3394H43.0029V53.7377H56V57.8443C55.6791 59.4825 54.9914 60.9972 53.937 62.3885C52.8825 63.7798 51.5186 64.9018 49.8453 65.7546C48.1948 66.5849 46.3381 67 44.2751 67C41.9599 67 39.8625 66.4951 37.9828 65.4853C36.1261 64.453 34.659 63.028 33.5817 61.2104C32.5272 59.3927 32 57.3282 32 55.0168C32 52.7055 32.5272 50.641 33.5817 48.8233C34.659 46.9832 36.1261 45.5582 37.9828 44.5484C39.8625 43.5161 41.9484 43 44.2407 43C46.9456 43 49.2951 43.6508 51.2894 44.9523C53.2837 46.2314 54.659 48.0379 55.4155 50.3717H49.8797Z" fill="#FFDF46"/>
</g>
</svg>
