<svg width="88" height="88" viewBox="0 0 88 88" fill="none" xmlns="http://www.w3.org/2000/svg">
<g opacity="0.2">
<path fill-rule="evenodd" clip-rule="evenodd" d="M66 0H40.5L31.5 27.5H55L66 0ZM58.6148 5L51.6148 22.5H38.3973L44.1246 5H58.6148Z" fill="#B1B7C6"/>
<path d="M55 27.5H33L22 0H44L55 27.5Z" fill="white"/>
<path fill-rule="evenodd" clip-rule="evenodd" d="M55 27.5L44 0H22L33 27.5H55ZM47.6148 22.5L40.6148 5H29.3852L36.3852 22.5H47.6148Z" fill="#B1B7C6"/>
<path d="M74.8786 62.8473L74.8789 62.8463C75.0172 62.3293 74.889 61.5479 74.3291 59.9413C74.2749 59.7857 74.215 59.6189 74.1516 59.4424C73.6886 58.1525 73.0391 56.3432 73.0391 54.572C73.0391 52.8008 73.6886 50.9915 74.1516 49.7017C74.215 49.5252 74.2749 49.3584 74.3291 49.2028C74.889 47.5961 75.0172 46.8148 74.8789 46.2978L74.8785 46.2964C74.7256 45.7236 74.1965 45.0805 72.9285 43.9883C72.7947 43.873 72.6475 43.7492 72.4907 43.6173C71.4602 42.7502 70.0111 41.531 69.1558 40.053L69.1557 40.0528C68.2872 38.5517 67.9484 36.6763 67.7072 35.3409C67.6722 35.1469 67.6392 34.9644 67.607 34.796C67.2899 33.1403 67.0021 32.3758 66.5998 31.9738L66.5983 31.9723C66.1963 31.57 65.4318 31.2822 63.7761 30.9652C63.6077 30.9329 63.4252 30.8999 63.2312 30.8649C61.8958 30.6237 60.0204 30.2849 58.5193 29.4164C57.0398 28.5607 55.8204 27.1111 54.9533 26.0805C54.8216 25.9239 54.6981 25.7771 54.583 25.6434C53.4909 24.3752 52.8483 23.8464 52.2757 23.6936L52.2743 23.6932C51.7573 23.5549 50.9759 23.6831 49.3693 24.243C49.2137 24.2973 49.0469 24.3571 48.8704 24.4205C47.5806 24.8835 45.7713 25.533 44.0001 25.533C42.2289 25.533 40.4195 24.8835 39.1297 24.4205C38.9532 24.3571 38.7864 24.2973 38.6308 24.243C37.0242 23.6831 36.2428 23.5549 35.7258 23.6932L35.7245 23.6936C35.1518 23.8464 34.5093 24.3752 33.4172 25.6434C33.3021 25.7771 33.1785 25.9239 33.0468 26.0805C32.1797 27.1111 30.9603 28.5607 29.4808 29.4164L74.8786 62.8473ZM74.8786 62.8473C74.7259 63.4193 74.197 64.0618 72.9285 65.1544C72.7949 65.2695 72.6481 65.393 72.4917 65.5247C71.4611 66.392 70.0119 67.6114 69.1561 69.0906C68.2871 70.5914 67.9484 72.4673 67.7071 73.8028C67.6721 73.9967 67.6392 74.1792 67.6069 74.3475C67.2898 76.0037 67.002 76.7684 66.5998 77.1702L66.5983 77.1717M74.8786 62.8473L66.5983 77.1717M66.5983 77.1717C66.1963 77.574 65.4318 77.8618 63.7761 78.1789C63.6077 78.2112 63.4252 78.2441 63.2313 78.2792C61.8958 78.5204 60.0204 78.8591 58.5193 79.7277C57.0398 80.5834 55.8204 82.0329 54.9533 83.0636C54.8216 83.2201 54.6981 83.367 54.583 83.5007C53.4909 84.7689 52.8483 85.2977 52.2757 85.4505L52.2743 85.4509M66.5983 77.1717L52.2743 85.4509M52.2743 85.4509C51.7573 85.5892 50.976 85.461 49.3693 84.9011C49.2137 84.8468 49.0469 84.787 48.8705 84.7236C47.5806 84.2606 45.7713 83.6111 44.0001 83.6111C42.2289 83.6111 40.4195 84.2606 39.1297 84.7236C38.9532 84.787 38.7864 84.8468 38.6308 84.9011C37.0242 85.461 36.2428 85.5892 35.7258 85.4509L35.7245 85.4505M52.2743 85.4509L35.7245 85.4505M35.7245 85.4505C35.1518 85.2977 34.5093 84.7689 33.4172 83.5007C33.3021 83.367 33.1785 83.2202 33.0468 83.0636C32.1797 82.0329 30.9603 80.5834 29.4808 79.7277C27.9797 78.8591 26.1044 78.5204 24.7689 78.2792C24.575 78.2441 24.3924 78.2112 24.224 78.1789C22.5683 77.8618 21.8038 77.574 21.4019 77.1717L21.4004 77.1702M35.7245 85.4505L21.4004 77.1702M21.4004 77.1702C20.9981 76.7683 20.7103 76.0038 20.3932 74.3481M21.4004 77.1702L20.3932 74.3481M13.1212 62.8463L13.1215 62.8473C13.2743 63.4193 13.8031 64.0618 15.0716 65.1545C15.2052 65.2695 15.352 65.393 15.5084 65.5247C16.5392 66.3921 17.9887 67.6118 18.8444 69.0913L13.1212 62.8463ZM13.1212 62.8463C12.9829 62.3293 13.1111 61.5479 13.671 59.9413C13.7253 59.7857 13.7851 59.6189 13.8485 59.4424C14.3115 58.1525 14.961 56.3432 14.961 54.572C14.961 52.8008 14.3115 50.9915 13.8485 49.7017C13.7851 49.5252 13.7253 49.3584 13.671 49.2028C13.1111 47.5961 12.9829 46.8148 13.1212 46.2978L13.1216 46.2964M13.1212 62.8463L13.1216 46.2964M13.1216 46.2964C13.2745 45.7236 13.8036 45.0805 15.0716 43.9883C15.2055 43.873 15.3526 43.7492 15.5094 43.6173C16.54 42.7502 17.989 41.531 18.8443 40.053L18.8444 40.0528M13.1216 46.2964L18.8444 40.0528M18.8444 40.0528C19.713 38.5517 20.0517 36.6763 20.2929 35.3409C20.328 35.1469 20.3609 34.9644 20.3932 34.796C20.7103 33.1403 20.9981 32.3758 21.4004 31.9738L21.4019 31.9723M18.8444 40.0528L21.4019 31.9723M21.4019 31.9723C21.8038 31.57 22.5683 31.2822 24.224 30.9652M21.4019 31.9723L24.224 30.9652M20.3932 74.3481C20.3609 74.1797 20.328 73.9971 20.2929 73.8032M20.3932 74.3481L20.2929 73.8032M20.2929 73.8032C20.0517 72.4679 19.713 70.5928 18.8447 69.0918L20.2929 73.8032ZM24.224 30.9652C24.3924 30.9329 24.575 30.8999 24.7689 30.8649M24.224 30.9652L24.7689 30.8649M24.7689 30.8649C26.1042 30.6237 27.9793 30.285 29.4803 29.4167L24.7689 30.8649Z" fill="white" stroke="#B1B7C6" stroke-width="5"/>
<path fill-rule="evenodd" clip-rule="evenodd" d="M44 71.572C53.3888 71.572 61 63.9608 61 54.572C61 45.1832 53.3888 37.572 44 37.572C34.6112 37.572 27 45.1832 27 54.572C27 63.9608 34.6112 71.572 44 71.572ZM66 54.572C66 66.7223 56.1503 76.572 44 76.572C31.8497 76.572 22 66.7223 22 54.572C22 42.4217 31.8497 32.572 44 32.572C56.1503 32.572 66 42.4217 66 54.572Z" fill="#B1B7C6"/>
</g>
</svg>
