<svg width="86" height="88" viewBox="0 0 86 88" fill="none" xmlns="http://www.w3.org/2000/svg">
<path d="M53.75 27.5L64.5 0H43L32.25 27.5H53.75Z" fill="#333333"/>
<path d="M53.75 27.5H32.25L21.5 0H43L53.75 27.5Z" fill="#333333" fill-opacity="0.76"/>
<path d="M53.75 27.5H43V0L53.75 27.5Z" fill="#55595F"/>
<path d="M73.8232 54.572C73.8232 57.5266 76.2504 60.7681 75.5382 63.4923C74.8025 66.3111 71.0954 67.8734 69.6996 70.3433C68.2836 72.8458 68.801 76.9072 66.8139 78.9387C64.8285 80.972 60.8611 80.4426 58.4138 81.8916C56.0001 83.3198 54.4749 87.1131 51.7185 87.8659C49.0562 88.5947 45.8883 86.1111 43.001 86.1111C40.1136 86.1111 36.9457 88.5947 34.2834 87.8659C31.527 87.1131 30.0019 83.3198 27.5882 81.8916C25.1408 80.4426 21.1734 80.972 19.188 78.9387C17.201 76.9072 17.7183 72.8475 16.3023 70.3433C14.9065 67.8734 11.1994 66.3111 10.4637 63.4923C9.75155 60.7681 12.1787 57.5266 12.1787 54.572C12.1787 51.6175 9.75155 48.3759 10.4637 45.6517C11.1994 42.8312 14.9065 41.2689 16.3023 38.8008C17.7183 36.2966 17.201 32.2369 19.188 30.2053C21.1734 28.172 25.1408 28.7014 27.5882 27.2525C30.0019 25.8242 31.527 22.0309 34.2834 21.2781C36.9457 20.5494 40.1136 23.033 43.001 23.033C45.8883 23.033 49.0562 20.5494 51.7185 21.2781C54.4749 22.0309 56.0001 25.8242 58.4138 27.2525C60.8611 28.7014 64.8285 28.172 66.8139 30.2053C68.801 32.2369 68.2836 36.2966 69.6996 38.8008C71.0954 41.2689 74.8025 42.8312 75.5382 45.6517C76.2504 48.3759 73.8232 51.6175 73.8232 54.572Z" fill="#E9EBEE"/>
<path d="M73.8223 54.572C73.8223 57.5266 76.2494 60.7681 75.5372 63.4923C74.8015 66.3111 71.0944 67.8734 69.6986 70.3433C68.2826 72.8458 68.8 76.9072 66.8129 78.9387C64.8275 80.972 60.8601 80.4426 58.4128 81.8916C55.9991 83.3198 54.4739 87.1131 51.7175 87.8659C49.0552 88.5947 45.8873 86.1111 43 86.1111V23.033C45.8873 23.033 49.0552 20.5494 51.7175 21.2781C54.4739 22.0309 55.9991 25.8242 58.4128 27.2525C60.8601 28.7014 64.8275 28.172 66.8129 30.2053C68.8 32.2369 68.2826 36.2966 69.6986 38.8008C71.0944 41.2689 74.8015 42.8312 75.5372 45.6517C76.2494 48.3759 73.8223 51.6175 73.8223 54.572Z" fill="#CACCCD"/>
<path d="M43 76.572C54.8741 76.572 64.5 66.7223 64.5 54.572C64.5 42.4218 54.8741 32.572 43 32.572C31.1258 32.572 21.5 42.4218 21.5 54.572C21.5 66.7223 31.1258 76.572 43 76.572Z" fill="#CACCCD"/>
<path d="M64.5 54.572C64.5 66.7219 54.8737 76.572 43 76.572V32.572C54.8737 32.572 64.5 42.4222 64.5 54.572Z" fill="#9C9FA0"/>
</svg>
