<svg width="88" height="88" viewBox="0 0 88 88" fill="none" xmlns="http://www.w3.org/2000/svg">
<path d="M55 27.5L66 0H44L33 27.5H55Z" fill="#FE6C38"/>
<path d="M55 27.5H33L22 0H44L55 27.5Z" fill="#FFA686"/>
<path d="M55 27.5H44V0L55 27.5Z" fill="#FF885C"/>
<path d="M75.5391 54.572C75.5391 57.5266 78.0227 60.7681 77.294 63.4923C76.5412 66.3111 72.7479 67.8734 71.3196 70.3433C69.8707 72.8458 70.4001 76.9072 68.3668 78.9388C66.3352 80.972 62.2755 80.4427 59.7713 81.8916C57.3015 83.3198 55.7408 87.1131 52.9204 87.8659C50.1962 88.5947 46.9546 86.1111 44.0001 86.1111C41.0455 86.1111 37.804 88.5947 35.0798 87.8659C32.2593 87.1131 30.6987 83.3198 28.2288 81.8916C25.7246 80.4427 21.6649 80.972 19.6333 78.9388C17.6001 76.9072 18.1294 72.8475 16.6805 70.3433C15.2523 67.8734 11.459 66.3111 10.7062 63.4923C9.97741 60.7681 12.461 57.5266 12.461 54.572C12.461 51.6175 9.97741 48.3759 10.7062 45.6517C11.459 42.8312 15.2523 41.2689 16.6805 38.8008C18.1294 36.2966 17.6001 32.2369 19.6333 30.2053C21.6649 28.172 25.7246 28.7014 28.2288 27.2525C30.6987 25.8242 32.2593 22.0309 35.0798 21.2781C37.804 20.5494 41.0455 23.033 44.0001 23.033C46.9546 23.033 50.1962 20.5494 52.9204 21.2781C55.7408 22.0309 57.3015 25.8242 59.7713 27.2525C62.2755 28.7014 66.3352 28.172 68.3668 30.2053C70.4001 32.2369 69.8707 36.2966 71.3196 38.8008C72.7479 41.2689 76.5412 42.8312 77.294 45.6517C78.0227 48.3759 75.5391 51.6175 75.5391 54.572Z" fill="#E9EBEE"/>
<path d="M75.5391 54.572C75.5391 57.5266 78.0227 60.7681 77.2939 63.4923C76.5411 66.3111 72.7478 67.8734 71.3196 70.3433C69.8707 72.8458 70.4 76.9072 68.3667 78.9388C66.3352 80.972 62.2755 80.4427 59.7713 81.8916C57.3014 83.3198 55.7408 87.1131 52.9203 87.8659C50.1961 88.5947 46.9545 86.1111 44 86.1111V23.033C46.9545 23.033 50.1961 20.5494 52.9203 21.2781C55.7408 22.0309 57.3014 25.8242 59.7713 27.2525C62.2755 28.7014 66.3352 28.172 68.3667 30.2053C70.4 32.2369 69.8707 36.2966 71.3196 38.8008C72.7478 41.2689 76.5411 42.8312 77.2939 45.6517C78.0227 48.3759 75.5391 51.6175 75.5391 54.572Z" fill="#CACCCD"/>
<path d="M44 76.572C56.1503 76.572 66 66.7223 66 54.572C66 42.4217 56.1503 32.572 44 32.572C31.8497 32.572 22 42.4217 22 54.572C22 66.7223 31.8497 76.572 44 76.572Z" fill="#CACCCD"/>
<path d="M66 54.572C66 66.7218 56.1498 76.572 44 76.572V32.572C56.1498 32.572 66 42.4222 66 54.572Z" fill="#9C9FA0"/>
<path d="M44.2286 66.231C42.6226 66.231 41.1706 65.956 39.8726 65.406C38.5966 64.856 37.5846 64.064 36.8366 63.03C36.0886 61.996 35.7036 60.775 35.6816 59.367H40.6316C40.6976 60.313 41.0276 61.061 41.6216 61.611C42.2376 62.161 43.0736 62.436 44.1296 62.436C45.2076 62.436 46.0546 62.183 46.6706 61.677C47.2866 61.149 47.5946 60.467 47.5946 59.631C47.5946 58.949 47.3856 58.388 46.9676 57.948C46.5496 57.508 46.0216 57.167 45.3836 56.925C44.7676 56.661 43.9096 56.375 42.8096 56.067C41.3136 55.627 40.0926 55.198 39.1466 54.78C38.2226 54.34 37.4196 53.691 36.7376 52.833C36.0776 51.953 35.7476 50.787 35.7476 49.335C35.7476 47.971 36.0886 46.783 36.7706 45.771C37.4526 44.759 38.4096 43.989 39.6416 43.461C40.8736 42.911 42.2816 42.636 43.8656 42.636C46.2416 42.636 48.1666 43.219 49.6406 44.385C51.1366 45.529 51.9616 47.135 52.1156 49.203H47.0336C46.9896 48.411 46.6486 47.762 46.0106 47.256C45.3946 46.728 44.5696 46.464 43.5356 46.464C42.6336 46.464 41.9076 46.695 41.3576 47.157C40.8296 47.619 40.5656 48.29 40.5656 49.17C40.5656 49.786 40.7636 50.303 41.1596 50.721C41.5776 51.117 42.0836 51.447 42.6776 51.711C43.2936 51.953 44.1516 52.239 45.2516 52.569C46.7476 53.009 47.9686 53.449 48.9146 53.889C49.8606 54.329 50.6746 54.989 51.3566 55.869C52.0386 56.749 52.3796 57.904 52.3796 59.334C52.3796 60.566 52.0606 61.71 51.4226 62.766C50.7846 63.822 49.8496 64.669 48.6176 65.307C47.3856 65.923 45.9226 66.231 44.2286 66.231Z" fill="#CACCCD"/>
<mask id="mask0_1777_2520" style="mask-type:alpha" maskUnits="userSpaceOnUse" x="30" y="41" width="14" height="28">
<rect x="30" y="41" width="14" height="28" fill="#C4C4C4"/>
</mask>
<g mask="url(#mask0_1777_2520)">
<path d="M44.2306 66.231C42.6246 66.231 41.1726 65.956 39.8746 65.406C38.5986 64.856 37.5866 64.064 36.8386 63.03C36.0906 61.996 35.7056 60.775 35.6836 59.367H40.6336C40.6996 60.313 41.0296 61.061 41.6236 61.611C42.2396 62.161 43.0756 62.436 44.1316 62.436C45.2096 62.436 46.0566 62.183 46.6726 61.677C47.2886 61.149 47.5966 60.467 47.5966 59.631C47.5966 58.949 47.3876 58.388 46.9696 57.948C46.5516 57.508 46.0236 57.167 45.3856 56.925C44.7696 56.661 43.9116 56.375 42.8116 56.067C41.3156 55.627 40.0946 55.198 39.1486 54.78C38.2246 54.34 37.4216 53.691 36.7396 52.833C36.0796 51.953 35.7496 50.787 35.7496 49.335C35.7496 47.971 36.0906 46.783 36.7726 45.771C37.4546 44.759 38.4116 43.989 39.6436 43.461C40.8756 42.911 42.2836 42.636 43.8676 42.636C46.2436 42.636 48.1686 43.219 49.6426 44.385C51.1386 45.529 51.9636 47.135 52.1176 49.203H47.0356C46.9916 48.411 46.6506 47.762 46.0126 47.256C45.3966 46.728 44.5716 46.464 43.5376 46.464C42.6356 46.464 41.9096 46.695 41.3596 47.157C40.8316 47.619 40.5676 48.29 40.5676 49.17C40.5676 49.786 40.7656 50.303 41.1616 50.721C41.5796 51.117 42.0856 51.447 42.6796 51.711C43.2956 51.953 44.1536 52.239 45.2536 52.569C46.7496 53.009 47.9706 53.449 48.9166 53.889C49.8626 54.329 50.6766 54.989 51.3586 55.869C52.0406 56.749 52.3816 57.904 52.3816 59.334C52.3816 60.566 52.0626 61.71 51.4246 62.766C50.7866 63.822 49.8516 64.669 48.6196 65.307C47.3876 65.923 45.9246 66.231 44.2306 66.231Z" fill="#E9EBEE"/>
</g>
</svg>
