<svg width="44" height="44" viewBox="0 0 44 44" fill="none" xmlns="http://www.w3.org/2000/svg">
<path d="M27.5 13.75L33 0H22L16.5 13.75H27.5Z" fill="#086ACD"/>
<path d="M27.5 13.75H16.5L11 0H22L27.5 13.75Z" fill="#0098FF" fill-opacity="0.76"/>
<path d="M27.5 13.75H22V0L27.5 13.75Z" fill="#328FCE"/>
<path d="M37.77 27.286C37.77 28.7633 39.0118 30.3841 38.6474 31.7462C38.271 33.1555 36.3744 33.9367 35.6603 35.1716C34.9358 36.4229 35.2005 38.4536 34.1839 39.4694C33.1681 40.486 31.1382 40.2213 29.8861 40.9458C28.6512 41.6599 27.8709 43.5566 26.4606 43.933C25.0985 44.2973 23.4778 43.0555 22.0005 43.0555C20.5232 43.0555 18.9024 44.2973 17.5403 43.933C16.1301 43.5566 15.3498 41.6599 14.1149 40.9458C12.8628 40.2213 10.8329 40.486 9.81713 39.4694C8.80049 38.4536 9.06518 36.4237 8.34072 35.1716C7.62658 33.9367 5.72994 33.1555 5.35354 31.7462C4.98916 30.3841 6.23096 28.7633 6.23096 27.286C6.23096 25.8087 4.98916 24.188 5.35354 22.8259C5.72994 21.4156 7.62658 20.6344 8.34072 19.4004C9.06518 18.1483 8.80049 16.1184 9.81713 15.1027C10.8329 14.086 12.8628 14.3507 14.1149 13.6262C15.3498 12.9121 16.1301 11.0155 17.5403 10.6391C18.9024 10.2747 20.5232 11.5165 22.0005 11.5165C23.4778 11.5165 25.0985 10.2747 26.4606 10.6391C27.8709 11.0155 28.6512 12.9121 29.8861 13.6262C31.1382 14.3507 33.1681 14.086 34.1839 15.1027C35.2005 16.1184 34.9358 18.1483 35.6603 19.4004C36.3744 20.6344 38.271 21.4156 38.6474 22.8259C39.0118 24.188 37.77 25.8087 37.77 27.286Z" fill="#FFDF46"/>
<path d="M37.7695 27.286C37.7695 28.7633 39.0113 30.3841 38.6469 31.7462C38.2705 33.1555 36.3739 33.9367 35.6598 35.1716C34.9353 36.4229 35.2 38.4536 34.1833 39.4694C33.1676 40.486 31.1377 40.2213 29.8856 40.9458C28.6507 41.6599 27.8704 43.5566 26.4601 43.933C25.098 44.2973 23.4772 43.0555 22 43.0555V11.5165C23.4772 11.5165 25.098 10.2747 26.4601 10.6391C27.8704 11.0155 28.6507 12.9121 29.8856 13.6262C31.1377 14.3507 33.1676 14.086 34.1833 15.1027C35.2 16.1184 34.9353 18.1483 35.6598 19.4004C36.3739 20.6344 38.2705 21.4156 38.6469 22.8259C39.0113 24.188 37.7695 25.8087 37.7695 27.286V27.286Z" fill="#FFA000"/>
<path d="M22 38.286C28.0751 38.286 33 33.3611 33 27.286C33 21.2109 28.0751 16.286 22 16.286C15.9248 16.286 11 21.2109 11 27.286C11 33.3611 15.9248 38.286 22 38.286Z" fill="#FFA000"/>
<path d="M33 27.286C33 33.3609 28.0749 38.286 22 38.286V16.286C28.0749 16.286 33 21.2111 33 27.286Z" fill="#DF7D00"/>
</svg>
