<svg width="88" height="88" viewBox="0 0 88 88" fill="none" xmlns="http://www.w3.org/2000/svg">
<path d="M55 27.5L66 0H44L33 27.5H55Z" fill="#1073CF"/>
<path d="M55 27.5H33L22 0H44L55 27.5Z" fill="#1073CF" fill-opacity="0.77"/>
<path d="M55 27.5H44V0L55 27.5Z" fill="#328FCE"/>
<path d="M75.5401 54.572C75.5401 57.5266 78.0237 60.7681 77.2949 63.4923C76.5421 66.3111 72.7488 67.8734 71.3205 70.3433C69.8716 72.8458 70.401 76.9072 68.3677 78.9387C66.3362 80.972 62.2765 80.4426 59.7723 81.8916C57.3024 83.3198 55.7418 87.1131 52.9213 87.8659C50.1971 88.5947 46.9555 86.1111 44.001 86.1111C41.0465 86.1111 37.8049 88.5947 35.0807 87.8659C32.2602 87.1131 30.6996 83.3198 28.2297 81.8916C25.7255 80.4426 21.6658 80.972 19.6343 78.9387C17.601 76.9072 18.1304 72.8475 16.6815 70.3433C15.2532 67.8734 11.4599 66.3111 10.7071 63.4923C9.97834 60.7681 12.4619 57.5266 12.4619 54.572C12.4619 51.6175 9.97834 48.3759 10.7071 45.6517C11.4599 42.8312 15.2532 41.2689 16.6815 38.8008C18.1304 36.2966 17.601 32.2369 19.6343 30.2053C21.6658 28.172 25.7255 28.7014 28.2297 27.2525C30.6996 25.8242 32.2602 22.0309 35.0807 21.2781C37.8049 20.5494 41.0465 23.033 44.001 23.033C46.9555 23.033 50.1971 20.5494 52.9213 21.2781C55.7418 22.0309 57.3024 25.8242 59.7723 27.2525C62.2765 28.7014 66.3362 28.172 68.3677 30.2053C70.401 32.2369 69.8716 36.2966 71.3205 38.8008C72.7488 41.2689 76.5421 42.8312 77.2949 45.6517C78.0237 48.3759 75.5401 51.6175 75.5401 54.572Z" fill="#F0F2FF"/>
<path d="M75.539 54.572C75.539 57.5266 78.0226 60.7681 77.2939 63.4923C76.5411 66.3111 72.7478 67.8734 71.3195 70.3433C69.8706 72.8458 70.4 76.9072 68.3667 78.9387C66.3351 80.972 62.2754 80.4426 59.7712 81.8916C57.3014 83.3198 55.7407 87.1131 52.9203 87.8659C50.1961 88.5947 46.9545 86.1111 44 86.1111V23.033C46.9545 23.033 50.1961 20.5494 52.9203 21.2781C55.7407 22.0309 57.3014 25.8242 59.7712 27.2525C62.2754 28.7014 66.3351 28.172 68.3667 30.2053C70.4 32.2369 69.8706 36.2966 71.3195 38.8008C72.7478 41.2689 76.5411 42.8312 77.2939 45.6517C78.0226 48.3759 75.539 51.6175 75.539 54.572Z" fill="#D7DCF5"/>
<path d="M44 76.572C56.1502 76.572 66 66.7223 66 54.572C66 42.4218 56.1502 32.572 44 32.572C31.8497 32.572 22 42.4218 22 54.572C22 66.7223 31.8497 76.572 44 76.572Z" fill="#D7DCF5"/>
<path d="M66 54.572C66 66.7219 56.1498 76.572 44 76.572V32.572C56.1498 32.572 66 42.4222 66 54.572Z" fill="#BBC1DE"/>
</svg>
